<?xml version="1.0" encoding="UTF-8"?>
<svg id="Layer_2" data-name="Layer 2" xmlns="http://www.w3.org/2000/svg" xmlns:xlink="http://www.w3.org/1999/xlink" viewBox="0 0 644.6 473.78">
  <defs>
    <style>
      .cls-1 {
        fill: url(#linear-gradient-2);
      }

      .cls-2 {
        fill: url(#linear-gradient);
      }
    </style>
    <linearGradient id="linear-gradient" x1="584.74" y1="-49.97" x2="2.71" y2="430.02" gradientUnits="userSpaceOnUse">
      <stop offset="0" stop-color="#df0"/>
      <stop offset="1" stop-color="#df0"/>
    </linearGradient>
    <linearGradient id="linear-gradient-2" x1="653.89" y1="33.88" x2="71.85" y2="513.87" xlink:href="#linear-gradient"/>
  </defs>
  <g id="dark">
    <g>
      <path class="cls-2" d="M464.26,213.92l-33.58-33.58c-12.69-12.69-33.26-12.69-45.95,0l-33.58,33.58c-6.54,6.54-9.71,15.18-9.51,23.75,3.76,68.36-30.94,102.95-102.76,104.05-.93-.06-1.86-.08-2.79-.06-68.36,3.75-102.95-30.94-104.05-102.74.06-.93.08-1.87.06-2.8-3.83-69.8,32.41-104.39,107.31-104.08,7.45-.58,14.73-3.72,20.43-9.42l33.58-33.58c12.69-12.69,12.69-33.26,0-45.95l-33.58-33.58c-12.69-12.69-33.26-12.69-45.95,0l-33.58,33.58c-5.7,5.7-8.83,12.98-9.42,20.42.32,74.9-34.28,111.15-104.08,107.32-8.57-.2-17.21,2.96-23.75,9.51l-33.58,33.58c-12.69,12.69-12.69,33.26,0,45.95l33.58,33.58c6.23,6.23,15.08,10.06,24.99,9.45,71.42,1.09,106.13,35.31,102.8,102.95-.53,9.17,2.81,18.2,9.46,24.85l33.58,33.58c12.69,12.69,33.26,12.69,45.95,0l33.58-33.58c5.69-5.7,8.83-12.98,9.42-20.43-.32-74.9,34.28-111.15,104.08-107.31,8.57.2,17.21-2.96,23.75-9.51l33.58-33.58c12.69-12.69,12.69-33.26,0-45.95Z"/>
      <path class="cls-1" d="M180.34,259.86l33.58,33.58c12.69,12.69,33.26,12.69,45.95,0l33.58-33.58c6.54-6.54,9.71-15.18,9.51-23.75-3.76-68.36,30.94-102.95,102.76-104.05.93.06,1.86.08,2.79.06,68.36-3.75,102.95,30.94,104.05,102.74-.06.93-.09,1.87-.06,2.8,3.84,69.8-32.41,104.39-107.31,104.08-7.45.58-14.73,3.72-20.43,9.42l-33.58,33.58c-12.69,12.69-12.69,33.26,0,45.95l33.58,33.58c12.69,12.69,33.26,12.69,45.95,0l33.58-33.58c5.7-5.7,8.84-12.98,9.42-20.43-.32-74.9,34.28-111.15,104.08-107.31,8.57.2,17.21-2.96,23.75-9.51l33.58-33.58c12.69-12.69,12.69-33.26,0-45.95l-33.58-33.58c-6.23-6.23-15.08-10.06-24.99-9.45-71.43-1.09-106.13-35.32-102.8-102.95.52-9.17-2.81-18.2-9.46-24.85l-33.58-33.58c-12.69-12.69-33.26-12.69-45.95,0l-33.58,33.58c-5.7,5.7-8.83,12.98-9.42,20.42.32,74.9-34.28,111.15-104.08,107.32-8.57-.2-17.21,2.96-23.75,9.51l-33.58,33.58c-12.69,12.69-12.69,33.26,0,45.95Z"/>
    </g>
  </g>
</svg>